%
M48
M72
T01C0.0197
T02C0.0276
T03C0.0394
T04C0.0400
T05C0.0551
T06C0.1300
%
T01
X6210Y5593
X7210Y7468
X6210Y9093
X7210Y10968
X6210Y12593
X7210Y14468
X6210Y16093
X7210Y17093
X6710Y23468
X6960Y23968
X7460Y25593
X7460Y26593
X7210Y27093
X7460Y27593
X7210Y28093
X8460Y30093
X8460Y31093
X9460Y31093
X10210Y31343
X9460Y30093
X10210Y28218
X9710Y26343
X9960Y24968
X9085Y24593
X9585Y23468
X8335Y25156
X11210Y27343
X11960Y29093
X12960Y29093
X12960Y28093
X13960Y28093
X13960Y29093
X13960Y30093
X13960Y31093
X12960Y31093
X12960Y30093
X11585Y31718
X15460Y31093
X15460Y30093
X15460Y29093
X15460Y28093
X16460Y28093
X16460Y29093
X16460Y30093
X15835Y23406
X16210Y17093
X16210Y14468
X16210Y10968
X16210Y7468
X12085Y6218
X11710Y7468
X11710Y10968
X11710Y14468
X11710Y17093
X11210Y22093
T02
X4960Y22931
X4960Y23718
X4960Y24466
T03
X9710Y19923
X10710Y19763
X11710Y19923
X12710Y19763
T04
X8210Y32593
X7210Y32593
X6210Y32593
T05
X4960Y25608
X4960Y21829
T06
X5210Y4093
X5210Y19968
X5210Y31218
X17210Y31218
X17210Y19968
X17210Y4093
M30
