G75*
%MOIN*%
%OFA0B0*%
%FSLAX25Y25*%
%IPPOS*%
%LPD*%
%AMOC8*
5,1,8,0,0,1.08239X$1,22.5*
%
%ADD10C,0.00800*%
%ADD11C,0.00500*%
%ADD12C,0.00600*%
%ADD13C,0.01200*%
%ADD14C,0.00200*%
%ADD15C,0.02400*%
%ADD16C,0.01720*%
D10*
X0042595Y0083433D02*
X0046595Y0083433D01*
X0046595Y0118433D02*
X0042595Y0118433D01*
X0042595Y0153433D02*
X0046595Y0153433D01*
X0071017Y0202933D02*
X0071019Y0203043D01*
X0071025Y0203154D01*
X0071035Y0203264D01*
X0071049Y0203374D01*
X0071066Y0203483D01*
X0071088Y0203591D01*
X0071114Y0203698D01*
X0071143Y0203805D01*
X0071176Y0203910D01*
X0071213Y0204015D01*
X0071254Y0204117D01*
X0071298Y0204218D01*
X0071346Y0204318D01*
X0071398Y0204416D01*
X0071453Y0204512D01*
X0071511Y0204606D01*
X0071573Y0204697D01*
X0071638Y0204787D01*
X0071706Y0204874D01*
X0071777Y0204958D01*
X0071851Y0205040D01*
X0071928Y0205119D01*
X0072008Y0205196D01*
X0072091Y0205269D01*
X0072176Y0205339D01*
X0072264Y0205407D01*
X0072353Y0205471D01*
X0072446Y0205532D01*
X0072540Y0205589D01*
X0072636Y0205643D01*
X0072735Y0205694D01*
X0072835Y0205741D01*
X0072936Y0205785D01*
X0073039Y0205824D01*
X0073144Y0205860D01*
X0073250Y0205893D01*
X0073356Y0205921D01*
X0073464Y0205946D01*
X0073573Y0205966D01*
X0073682Y0205983D01*
X0073792Y0205996D01*
X0073902Y0206005D01*
X0074012Y0206010D01*
X0074123Y0206011D01*
X0074233Y0206008D01*
X0074343Y0206001D01*
X0074453Y0205990D01*
X0074563Y0205975D01*
X0074672Y0205956D01*
X0074780Y0205934D01*
X0074887Y0205907D01*
X0074993Y0205877D01*
X0075099Y0205843D01*
X0075202Y0205805D01*
X0075305Y0205763D01*
X0075406Y0205718D01*
X0075505Y0205669D01*
X0075602Y0205617D01*
X0075697Y0205561D01*
X0075791Y0205502D01*
X0075882Y0205439D01*
X0075971Y0205374D01*
X0076057Y0205305D01*
X0076141Y0205233D01*
X0076222Y0205158D01*
X0076301Y0205080D01*
X0076376Y0204999D01*
X0076449Y0204916D01*
X0076519Y0204830D01*
X0076585Y0204742D01*
X0076648Y0204652D01*
X0076709Y0204559D01*
X0076765Y0204464D01*
X0076818Y0204367D01*
X0076868Y0204268D01*
X0076914Y0204168D01*
X0076957Y0204066D01*
X0076996Y0203963D01*
X0077031Y0203858D01*
X0077062Y0203752D01*
X0077090Y0203645D01*
X0077113Y0203537D01*
X0077133Y0203428D01*
X0077149Y0203319D01*
X0077161Y0203209D01*
X0077169Y0203099D01*
X0077173Y0202988D01*
X0077173Y0202878D01*
X0077169Y0202767D01*
X0077161Y0202657D01*
X0077149Y0202547D01*
X0077133Y0202438D01*
X0077113Y0202329D01*
X0077090Y0202221D01*
X0077062Y0202114D01*
X0077031Y0202008D01*
X0076996Y0201903D01*
X0076957Y0201800D01*
X0076914Y0201698D01*
X0076868Y0201598D01*
X0076818Y0201499D01*
X0076765Y0201402D01*
X0076709Y0201307D01*
X0076648Y0201214D01*
X0076585Y0201124D01*
X0076519Y0201036D01*
X0076449Y0200950D01*
X0076376Y0200867D01*
X0076301Y0200786D01*
X0076222Y0200708D01*
X0076141Y0200633D01*
X0076057Y0200561D01*
X0075971Y0200492D01*
X0075882Y0200427D01*
X0075791Y0200364D01*
X0075697Y0200305D01*
X0075602Y0200249D01*
X0075505Y0200197D01*
X0075406Y0200148D01*
X0075305Y0200103D01*
X0075202Y0200061D01*
X0075099Y0200023D01*
X0074993Y0199989D01*
X0074887Y0199959D01*
X0074780Y0199932D01*
X0074672Y0199910D01*
X0074563Y0199891D01*
X0074453Y0199876D01*
X0074343Y0199865D01*
X0074233Y0199858D01*
X0074123Y0199855D01*
X0074012Y0199856D01*
X0073902Y0199861D01*
X0073792Y0199870D01*
X0073682Y0199883D01*
X0073573Y0199900D01*
X0073464Y0199920D01*
X0073356Y0199945D01*
X0073250Y0199973D01*
X0073144Y0200006D01*
X0073039Y0200042D01*
X0072936Y0200081D01*
X0072835Y0200125D01*
X0072735Y0200172D01*
X0072636Y0200223D01*
X0072540Y0200277D01*
X0072446Y0200334D01*
X0072353Y0200395D01*
X0072264Y0200459D01*
X0072176Y0200527D01*
X0072091Y0200597D01*
X0072008Y0200670D01*
X0071928Y0200747D01*
X0071851Y0200826D01*
X0071777Y0200908D01*
X0071706Y0200992D01*
X0071638Y0201079D01*
X0071573Y0201169D01*
X0071511Y0201260D01*
X0071453Y0201354D01*
X0071398Y0201450D01*
X0071346Y0201548D01*
X0071298Y0201648D01*
X0071254Y0201749D01*
X0071213Y0201851D01*
X0071176Y0201956D01*
X0071143Y0202061D01*
X0071114Y0202168D01*
X0071088Y0202275D01*
X0071066Y0202383D01*
X0071049Y0202492D01*
X0071035Y0202602D01*
X0071025Y0202712D01*
X0071019Y0202823D01*
X0071017Y0202933D01*
X0069487Y0207872D02*
X0087203Y0207872D01*
X0079517Y0202933D02*
X0079519Y0203043D01*
X0079525Y0203154D01*
X0079535Y0203264D01*
X0079549Y0203374D01*
X0079566Y0203483D01*
X0079588Y0203591D01*
X0079614Y0203698D01*
X0079643Y0203805D01*
X0079676Y0203910D01*
X0079713Y0204015D01*
X0079754Y0204117D01*
X0079798Y0204218D01*
X0079846Y0204318D01*
X0079898Y0204416D01*
X0079953Y0204512D01*
X0080011Y0204606D01*
X0080073Y0204697D01*
X0080138Y0204787D01*
X0080206Y0204874D01*
X0080277Y0204958D01*
X0080351Y0205040D01*
X0080428Y0205119D01*
X0080508Y0205196D01*
X0080591Y0205269D01*
X0080676Y0205339D01*
X0080764Y0205407D01*
X0080853Y0205471D01*
X0080946Y0205532D01*
X0081040Y0205589D01*
X0081136Y0205643D01*
X0081235Y0205694D01*
X0081335Y0205741D01*
X0081436Y0205785D01*
X0081539Y0205824D01*
X0081644Y0205860D01*
X0081750Y0205893D01*
X0081856Y0205921D01*
X0081964Y0205946D01*
X0082073Y0205966D01*
X0082182Y0205983D01*
X0082292Y0205996D01*
X0082402Y0206005D01*
X0082512Y0206010D01*
X0082623Y0206011D01*
X0082733Y0206008D01*
X0082843Y0206001D01*
X0082953Y0205990D01*
X0083063Y0205975D01*
X0083172Y0205956D01*
X0083280Y0205934D01*
X0083387Y0205907D01*
X0083493Y0205877D01*
X0083599Y0205843D01*
X0083702Y0205805D01*
X0083805Y0205763D01*
X0083906Y0205718D01*
X0084005Y0205669D01*
X0084102Y0205617D01*
X0084197Y0205561D01*
X0084291Y0205502D01*
X0084382Y0205439D01*
X0084471Y0205374D01*
X0084557Y0205305D01*
X0084641Y0205233D01*
X0084722Y0205158D01*
X0084801Y0205080D01*
X0084876Y0204999D01*
X0084949Y0204916D01*
X0085019Y0204830D01*
X0085085Y0204742D01*
X0085148Y0204652D01*
X0085209Y0204559D01*
X0085265Y0204464D01*
X0085318Y0204367D01*
X0085368Y0204268D01*
X0085414Y0204168D01*
X0085457Y0204066D01*
X0085496Y0203963D01*
X0085531Y0203858D01*
X0085562Y0203752D01*
X0085590Y0203645D01*
X0085613Y0203537D01*
X0085633Y0203428D01*
X0085649Y0203319D01*
X0085661Y0203209D01*
X0085669Y0203099D01*
X0085673Y0202988D01*
X0085673Y0202878D01*
X0085669Y0202767D01*
X0085661Y0202657D01*
X0085649Y0202547D01*
X0085633Y0202438D01*
X0085613Y0202329D01*
X0085590Y0202221D01*
X0085562Y0202114D01*
X0085531Y0202008D01*
X0085496Y0201903D01*
X0085457Y0201800D01*
X0085414Y0201698D01*
X0085368Y0201598D01*
X0085318Y0201499D01*
X0085265Y0201402D01*
X0085209Y0201307D01*
X0085148Y0201214D01*
X0085085Y0201124D01*
X0085019Y0201036D01*
X0084949Y0200950D01*
X0084876Y0200867D01*
X0084801Y0200786D01*
X0084722Y0200708D01*
X0084641Y0200633D01*
X0084557Y0200561D01*
X0084471Y0200492D01*
X0084382Y0200427D01*
X0084291Y0200364D01*
X0084197Y0200305D01*
X0084102Y0200249D01*
X0084005Y0200197D01*
X0083906Y0200148D01*
X0083805Y0200103D01*
X0083702Y0200061D01*
X0083599Y0200023D01*
X0083493Y0199989D01*
X0083387Y0199959D01*
X0083280Y0199932D01*
X0083172Y0199910D01*
X0083063Y0199891D01*
X0082953Y0199876D01*
X0082843Y0199865D01*
X0082733Y0199858D01*
X0082623Y0199855D01*
X0082512Y0199856D01*
X0082402Y0199861D01*
X0082292Y0199870D01*
X0082182Y0199883D01*
X0082073Y0199900D01*
X0081964Y0199920D01*
X0081856Y0199945D01*
X0081750Y0199973D01*
X0081644Y0200006D01*
X0081539Y0200042D01*
X0081436Y0200081D01*
X0081335Y0200125D01*
X0081235Y0200172D01*
X0081136Y0200223D01*
X0081040Y0200277D01*
X0080946Y0200334D01*
X0080853Y0200395D01*
X0080764Y0200459D01*
X0080676Y0200527D01*
X0080591Y0200597D01*
X0080508Y0200670D01*
X0080428Y0200747D01*
X0080351Y0200826D01*
X0080277Y0200908D01*
X0080206Y0200992D01*
X0080138Y0201079D01*
X0080073Y0201169D01*
X0080011Y0201260D01*
X0079953Y0201354D01*
X0079898Y0201450D01*
X0079846Y0201548D01*
X0079798Y0201648D01*
X0079754Y0201749D01*
X0079713Y0201851D01*
X0079676Y0201956D01*
X0079643Y0202061D01*
X0079614Y0202168D01*
X0079588Y0202275D01*
X0079566Y0202383D01*
X0079549Y0202492D01*
X0079535Y0202602D01*
X0079525Y0202712D01*
X0079519Y0202823D01*
X0079517Y0202933D01*
X0085235Y0227557D02*
X0090747Y0227557D01*
X0090747Y0237400D01*
X0094093Y0237400D01*
X0094093Y0221652D01*
X0084064Y0247733D02*
X0080745Y0247733D01*
X0080745Y0247933D02*
X0080743Y0248031D01*
X0080737Y0248129D01*
X0080728Y0248227D01*
X0080714Y0248324D01*
X0080697Y0248421D01*
X0080676Y0248517D01*
X0080651Y0248612D01*
X0080623Y0248706D01*
X0080590Y0248798D01*
X0080555Y0248890D01*
X0080515Y0248980D01*
X0080473Y0249068D01*
X0080426Y0249155D01*
X0080377Y0249239D01*
X0080324Y0249322D01*
X0080268Y0249402D01*
X0080208Y0249481D01*
X0080146Y0249557D01*
X0080081Y0249630D01*
X0080013Y0249701D01*
X0079942Y0249769D01*
X0079869Y0249834D01*
X0079793Y0249896D01*
X0079714Y0249956D01*
X0079634Y0250012D01*
X0079551Y0250065D01*
X0079467Y0250114D01*
X0079380Y0250161D01*
X0079292Y0250203D01*
X0079202Y0250243D01*
X0079110Y0250278D01*
X0079018Y0250311D01*
X0078924Y0250339D01*
X0078829Y0250364D01*
X0078733Y0250385D01*
X0078636Y0250402D01*
X0078539Y0250416D01*
X0078441Y0250425D01*
X0078343Y0250431D01*
X0078245Y0250433D01*
X0078147Y0250431D01*
X0078049Y0250425D01*
X0077951Y0250416D01*
X0077854Y0250402D01*
X0077757Y0250385D01*
X0077661Y0250364D01*
X0077566Y0250339D01*
X0077472Y0250311D01*
X0077380Y0250278D01*
X0077288Y0250243D01*
X0077198Y0250203D01*
X0077110Y0250161D01*
X0077023Y0250114D01*
X0076939Y0250065D01*
X0076856Y0250012D01*
X0076776Y0249956D01*
X0076697Y0249896D01*
X0076621Y0249834D01*
X0076548Y0249769D01*
X0076477Y0249701D01*
X0076409Y0249630D01*
X0076344Y0249557D01*
X0076282Y0249481D01*
X0076222Y0249402D01*
X0076166Y0249322D01*
X0076113Y0249239D01*
X0076064Y0249155D01*
X0076017Y0249068D01*
X0075975Y0248980D01*
X0075935Y0248890D01*
X0075900Y0248798D01*
X0075867Y0248706D01*
X0075839Y0248612D01*
X0075814Y0248517D01*
X0075793Y0248421D01*
X0075776Y0248324D01*
X0075762Y0248227D01*
X0075753Y0248129D01*
X0075747Y0248031D01*
X0075745Y0247933D01*
X0075745Y0247733D02*
X0071789Y0247733D01*
X0071789Y0247734D02*
X0071719Y0247746D01*
X0071649Y0247763D01*
X0071581Y0247783D01*
X0071513Y0247806D01*
X0071447Y0247834D01*
X0071383Y0247865D01*
X0071321Y0247899D01*
X0071260Y0247937D01*
X0071201Y0247977D01*
X0071145Y0248021D01*
X0071092Y0248068D01*
X0071040Y0248118D01*
X0070992Y0248171D01*
X0070947Y0248226D01*
X0070904Y0248283D01*
X0070865Y0248343D01*
X0070829Y0248405D01*
X0070797Y0248468D01*
X0070768Y0248533D01*
X0070742Y0248600D01*
X0070720Y0248668D01*
X0070702Y0248737D01*
X0070688Y0248807D01*
X0070678Y0248878D01*
X0070671Y0248949D01*
X0070668Y0249020D01*
X0070669Y0249091D01*
X0070674Y0249163D01*
X0070683Y0249233D01*
X0070683Y0283027D01*
X0070695Y0283097D01*
X0070712Y0283167D01*
X0070732Y0283235D01*
X0070756Y0283302D01*
X0070783Y0283368D01*
X0070814Y0283433D01*
X0070848Y0283495D01*
X0070886Y0283556D01*
X0070927Y0283614D01*
X0070971Y0283671D01*
X0071018Y0283724D01*
X0071068Y0283775D01*
X0071120Y0283824D01*
X0071175Y0283869D01*
X0071233Y0283912D01*
X0071292Y0283951D01*
X0071354Y0283987D01*
X0071418Y0284019D01*
X0071483Y0284048D01*
X0071549Y0284074D01*
X0071617Y0284095D01*
X0071687Y0284114D01*
X0071756Y0284128D01*
X0071827Y0284138D01*
X0071898Y0284145D01*
X0071969Y0284148D01*
X0072041Y0284147D01*
X0072112Y0284142D01*
X0072183Y0284133D01*
X0084508Y0284133D01*
X0084584Y0284131D01*
X0084659Y0284125D01*
X0084735Y0284116D01*
X0084810Y0284102D01*
X0084884Y0284085D01*
X0084957Y0284064D01*
X0085029Y0284040D01*
X0085099Y0284012D01*
X0085168Y0283980D01*
X0085236Y0283945D01*
X0085301Y0283906D01*
X0085365Y0283864D01*
X0085426Y0283819D01*
X0085485Y0283771D01*
X0085541Y0283720D01*
X0085595Y0283666D01*
X0085646Y0283610D01*
X0085694Y0283551D01*
X0085739Y0283490D01*
X0085781Y0283426D01*
X0085820Y0283361D01*
X0085855Y0283293D01*
X0085887Y0283224D01*
X0085915Y0283154D01*
X0085939Y0283082D01*
X0085960Y0283009D01*
X0085977Y0282935D01*
X0085991Y0282860D01*
X0086000Y0282784D01*
X0086006Y0282709D01*
X0086008Y0282633D01*
X0086008Y0249233D01*
X0086008Y0249234D02*
X0085996Y0249153D01*
X0085981Y0249073D01*
X0085962Y0248994D01*
X0085940Y0248916D01*
X0085913Y0248839D01*
X0085884Y0248763D01*
X0085850Y0248689D01*
X0085813Y0248617D01*
X0085773Y0248546D01*
X0085729Y0248478D01*
X0085682Y0248411D01*
X0085632Y0248347D01*
X0085579Y0248286D01*
X0085523Y0248227D01*
X0085464Y0248170D01*
X0085403Y0248117D01*
X0085339Y0248066D01*
X0085273Y0248019D01*
X0085205Y0247975D01*
X0085135Y0247934D01*
X0085063Y0247896D01*
X0084989Y0247862D01*
X0084913Y0247832D01*
X0084837Y0247805D01*
X0084759Y0247782D01*
X0084680Y0247762D01*
X0084600Y0247747D01*
X0084519Y0247735D01*
X0084439Y0247727D01*
X0084357Y0247723D01*
X0084276Y0247722D01*
X0084195Y0247726D01*
X0084114Y0247733D01*
X0071455Y0227557D02*
X0065944Y0227557D01*
X0065944Y0237400D01*
X0062597Y0237400D01*
X0062597Y0221652D01*
X0056091Y0277783D02*
X0056091Y0284083D01*
X0051170Y0285067D02*
X0048020Y0285067D01*
X0043099Y0284083D02*
X0043099Y0277783D01*
X0065095Y0290308D02*
X0069095Y0290308D01*
X0070442Y0294309D02*
X0070442Y0284467D01*
X0113749Y0284467D01*
X0113749Y0294309D01*
X0113749Y0310057D02*
X0113749Y0319900D01*
X0070442Y0319900D01*
X0070442Y0310057D01*
X0069095Y0314683D02*
X0065095Y0314683D01*
X0095095Y0274683D02*
X0099095Y0274683D01*
X0123345Y0315183D02*
X0123345Y0319183D01*
X0120845Y0050433D02*
X0120845Y0046433D01*
X0121267Y0037887D02*
X0117664Y0037887D01*
X0116463Y0036686D01*
X0116463Y0033083D01*
X0113901Y0034284D02*
X0112700Y0033083D01*
X0110298Y0033083D01*
X0109097Y0034284D01*
X0109097Y0036686D01*
X0110298Y0037887D01*
X0112700Y0037887D01*
X0113901Y0036686D01*
X0113901Y0034284D01*
X0121267Y0033083D02*
X0121267Y0037887D01*
X0123829Y0036686D02*
X0123829Y0033083D01*
X0123829Y0036686D02*
X0125030Y0037887D01*
X0127432Y0037887D01*
X0128633Y0036686D01*
X0131195Y0037887D02*
X0134798Y0037887D01*
X0135999Y0036686D01*
X0135999Y0034284D01*
X0134798Y0033083D01*
X0131195Y0033083D01*
X0128633Y0033083D02*
X0128633Y0040289D01*
X0138562Y0036686D02*
X0138562Y0035485D01*
X0143366Y0035485D01*
X0143366Y0034284D02*
X0143366Y0036686D01*
X0142165Y0037887D01*
X0139763Y0037887D01*
X0138562Y0036686D01*
X0139763Y0033083D02*
X0142165Y0033083D01*
X0143366Y0034284D01*
X0145928Y0040289D02*
X0150732Y0040289D01*
X0148330Y0040289D02*
X0148330Y0033083D01*
X0150845Y0046433D02*
X0150845Y0050433D01*
X0106534Y0040289D02*
X0106534Y0033083D01*
X0102931Y0033083D01*
X0101730Y0034284D01*
X0101730Y0036686D01*
X0102931Y0037887D01*
X0106534Y0037887D01*
X0099168Y0040289D02*
X0097967Y0040289D01*
X0097967Y0033083D01*
X0099168Y0033083D02*
X0096766Y0033083D01*
X0094257Y0034284D02*
X0093056Y0033083D01*
X0090654Y0033083D01*
X0089453Y0034284D01*
X0089453Y0036686D01*
X0090654Y0037887D01*
X0093056Y0037887D01*
X0094257Y0036686D01*
X0094257Y0034284D01*
X0086891Y0034284D02*
X0085690Y0033083D01*
X0082087Y0033083D01*
X0082087Y0031882D02*
X0082087Y0037887D01*
X0085690Y0037887D01*
X0086891Y0036686D01*
X0086891Y0034284D01*
X0084489Y0030681D02*
X0083288Y0030681D01*
X0082087Y0031882D01*
X0079525Y0034284D02*
X0078324Y0033083D01*
X0074720Y0033083D01*
X0074720Y0031882D02*
X0075922Y0030681D01*
X0077123Y0030681D01*
X0074720Y0031882D02*
X0074720Y0037887D01*
X0075845Y0046433D02*
X0075845Y0050433D01*
X0079525Y0037887D02*
X0079525Y0034284D01*
D11*
X0105205Y0214043D02*
X0168985Y0214043D01*
X0168985Y0215618D01*
X0168985Y0276248D02*
X0168985Y0277823D01*
X0105205Y0277823D01*
X0105205Y0276248D01*
X0101726Y0323683D02*
X0100224Y0323683D01*
X0099474Y0324434D01*
X0099474Y0328187D01*
X0097872Y0328187D02*
X0095620Y0328187D01*
X0094870Y0327436D01*
X0094870Y0325935D01*
X0095620Y0325184D01*
X0097872Y0325184D01*
X0097872Y0323683D02*
X0097872Y0328187D01*
X0093268Y0328187D02*
X0093268Y0323683D01*
X0091016Y0323683D01*
X0090266Y0324434D01*
X0090266Y0327436D01*
X0091016Y0328187D01*
X0093268Y0328187D01*
X0088664Y0328187D02*
X0087163Y0328187D01*
X0087914Y0328187D02*
X0087914Y0323683D01*
X0088664Y0323683D02*
X0087163Y0323683D01*
X0101726Y0323683D02*
X0102476Y0324434D01*
X0102476Y0328187D01*
X0144841Y0312307D02*
X0146343Y0310806D01*
X0149345Y0310806D01*
X0149345Y0309204D02*
X0144841Y0309204D01*
X0149345Y0306202D01*
X0144841Y0306202D01*
X0144841Y0304600D02*
X0144841Y0301598D01*
X0144841Y0303099D02*
X0149345Y0303099D01*
X0147093Y0310806D02*
X0147093Y0313808D01*
X0146343Y0313808D02*
X0144841Y0312307D01*
X0146343Y0313808D02*
X0149345Y0313808D01*
X0105205Y0215618D02*
X0105205Y0214043D01*
X0057075Y0217498D02*
X0042115Y0217498D01*
X0042115Y0228915D01*
X0043296Y0228915D01*
X0043296Y0245451D01*
X0042115Y0245451D01*
X0042115Y0241120D01*
X0022036Y0241120D01*
X0022036Y0233246D01*
X0042115Y0233246D01*
X0042115Y0228915D01*
X0042115Y0233246D02*
X0042115Y0241120D01*
X0042115Y0245451D02*
X0042115Y0256868D01*
X0057075Y0256868D01*
X0057075Y0239939D01*
X0054320Y0239939D01*
X0054320Y0234427D01*
X0057075Y0234427D01*
X0057075Y0239939D01*
X0057075Y0234427D02*
X0057075Y0217498D01*
X0055344Y0323683D02*
X0053843Y0325184D01*
X0053843Y0328187D01*
X0052241Y0327436D02*
X0052241Y0324434D01*
X0051491Y0323683D01*
X0049989Y0323683D01*
X0049239Y0324434D01*
X0047637Y0324434D02*
X0046887Y0323683D01*
X0045385Y0323683D01*
X0044635Y0324434D01*
X0044635Y0327436D02*
X0045385Y0328187D01*
X0046887Y0328187D01*
X0047637Y0327436D01*
X0047637Y0324434D01*
X0049239Y0327436D02*
X0049989Y0328187D01*
X0051491Y0328187D01*
X0052241Y0327436D01*
X0055344Y0323683D02*
X0056845Y0325184D01*
X0056845Y0328187D01*
D12*
X0071695Y0316463D02*
X0072129Y0316896D01*
X0073864Y0316896D01*
X0074297Y0316463D01*
X0074297Y0315595D01*
X0073864Y0315162D01*
X0073430Y0315162D01*
X0072996Y0315595D01*
X0072996Y0316896D01*
X0071695Y0316463D02*
X0071695Y0315595D01*
X0072129Y0315162D01*
X0071695Y0313950D02*
X0072563Y0313082D01*
X0072563Y0313516D02*
X0072563Y0312215D01*
X0071695Y0312215D02*
X0074297Y0312215D01*
X0074297Y0313516D01*
X0073864Y0313950D01*
X0072996Y0313950D01*
X0072563Y0313516D01*
X0072129Y0293771D02*
X0071695Y0293338D01*
X0071695Y0292470D01*
X0072129Y0292037D01*
X0073864Y0293771D01*
X0072129Y0293771D01*
X0072129Y0292037D02*
X0073864Y0292037D01*
X0074297Y0292470D01*
X0074297Y0293338D01*
X0073864Y0293771D01*
X0071695Y0290825D02*
X0071695Y0289090D01*
X0071695Y0289957D02*
X0074297Y0289957D01*
X0073430Y0289090D01*
X0073864Y0287878D02*
X0072996Y0287878D01*
X0072563Y0287445D01*
X0072563Y0286144D01*
X0072563Y0287011D02*
X0071695Y0287878D01*
X0071695Y0286144D02*
X0074297Y0286144D01*
X0074297Y0287445D01*
X0073864Y0287878D01*
X0063170Y0292417D02*
X0062736Y0291983D01*
X0061869Y0291983D01*
X0061435Y0292417D01*
X0060224Y0291983D02*
X0058489Y0293718D01*
X0058489Y0294152D01*
X0058923Y0294585D01*
X0059790Y0294585D01*
X0060224Y0294152D01*
X0061435Y0294152D02*
X0061869Y0294585D01*
X0062736Y0294585D01*
X0063170Y0294152D01*
X0063170Y0292417D01*
X0060224Y0291983D02*
X0058489Y0291983D01*
X0058558Y0267385D02*
X0057691Y0267385D01*
X0057257Y0266952D01*
X0057257Y0266518D01*
X0057691Y0266084D01*
X0057257Y0265650D01*
X0057257Y0265217D01*
X0057691Y0264783D01*
X0058558Y0264783D01*
X0058992Y0265217D01*
X0060203Y0265217D02*
X0060637Y0264783D01*
X0061504Y0264783D01*
X0061938Y0265217D01*
X0061938Y0266952D01*
X0061504Y0267385D01*
X0060637Y0267385D01*
X0060203Y0266952D01*
X0058992Y0266952D02*
X0058558Y0267385D01*
X0058124Y0266084D02*
X0057691Y0266084D01*
X0063124Y0240510D02*
X0063124Y0237908D01*
X0062257Y0237908D02*
X0063992Y0237908D01*
X0065203Y0238342D02*
X0065637Y0237908D01*
X0066504Y0237908D01*
X0066938Y0238342D01*
X0066938Y0240077D01*
X0066504Y0240510D01*
X0065637Y0240510D01*
X0065203Y0240077D01*
X0063992Y0239643D02*
X0063124Y0240510D01*
X0070941Y0211635D02*
X0071808Y0211635D01*
X0072242Y0211202D01*
X0073453Y0211635D02*
X0075188Y0209033D01*
X0073453Y0209033D02*
X0075188Y0211635D01*
X0072242Y0209033D02*
X0070507Y0210768D01*
X0070507Y0211202D01*
X0070941Y0211635D01*
X0070507Y0209033D02*
X0072242Y0209033D01*
X0051247Y0155481D02*
X0048645Y0155481D01*
X0049946Y0155914D02*
X0049946Y0154180D01*
X0051247Y0155481D01*
X0050814Y0152968D02*
X0049946Y0152968D01*
X0049513Y0152534D01*
X0049513Y0151233D01*
X0049513Y0152100D02*
X0048645Y0152968D01*
X0048645Y0151233D02*
X0051247Y0151233D01*
X0051247Y0152534D01*
X0050814Y0152968D01*
X0050814Y0120289D02*
X0050380Y0120289D01*
X0049946Y0119856D01*
X0049513Y0120289D01*
X0049079Y0120289D01*
X0048645Y0119856D01*
X0048645Y0118988D01*
X0049079Y0118555D01*
X0049946Y0119422D02*
X0049946Y0119856D01*
X0050814Y0120289D02*
X0051247Y0119856D01*
X0051247Y0118988D01*
X0050814Y0118555D01*
X0050814Y0117343D02*
X0049946Y0117343D01*
X0049513Y0116909D01*
X0049513Y0115608D01*
X0049513Y0116475D02*
X0048645Y0117343D01*
X0048645Y0115608D02*
X0051247Y0115608D01*
X0051247Y0116909D01*
X0050814Y0117343D01*
X0050814Y0085289D02*
X0051247Y0084856D01*
X0051247Y0083988D01*
X0050814Y0083555D01*
X0050814Y0082343D02*
X0049946Y0082343D01*
X0049513Y0081909D01*
X0049513Y0080608D01*
X0049513Y0081475D02*
X0048645Y0082343D01*
X0048645Y0083555D02*
X0050380Y0085289D01*
X0050814Y0085289D01*
X0048645Y0085289D02*
X0048645Y0083555D01*
X0050814Y0082343D02*
X0051247Y0081909D01*
X0051247Y0080608D01*
X0048645Y0080608D01*
X0073364Y0055085D02*
X0075099Y0055085D01*
X0075099Y0053784D01*
X0074231Y0054218D01*
X0073798Y0054218D01*
X0073364Y0053784D01*
X0073364Y0052917D01*
X0073798Y0052483D01*
X0074665Y0052483D01*
X0075099Y0052917D01*
X0076310Y0052483D02*
X0077178Y0053350D01*
X0076744Y0053350D02*
X0078045Y0053350D01*
X0078045Y0052483D02*
X0078045Y0055085D01*
X0076744Y0055085D01*
X0076310Y0054652D01*
X0076310Y0053784D01*
X0076744Y0053350D01*
X0118364Y0053350D02*
X0118798Y0053784D01*
X0120099Y0053784D01*
X0120099Y0052917D01*
X0119665Y0052483D01*
X0118798Y0052483D01*
X0118364Y0052917D01*
X0118364Y0053350D01*
X0119231Y0054652D02*
X0120099Y0053784D01*
X0121310Y0053784D02*
X0121744Y0053350D01*
X0123045Y0053350D01*
X0123045Y0052483D02*
X0123045Y0055085D01*
X0121744Y0055085D01*
X0121310Y0054652D01*
X0121310Y0053784D01*
X0122178Y0053350D02*
X0121310Y0052483D01*
X0119231Y0054652D02*
X0118364Y0055085D01*
X0148364Y0055085D02*
X0148364Y0054652D01*
X0150099Y0052917D01*
X0150099Y0052483D01*
X0151310Y0052483D02*
X0152178Y0053350D01*
X0151744Y0053350D02*
X0153045Y0053350D01*
X0153045Y0052483D02*
X0153045Y0055085D01*
X0151744Y0055085D01*
X0151310Y0054652D01*
X0151310Y0053784D01*
X0151744Y0053350D01*
X0150099Y0055085D02*
X0148364Y0055085D01*
X0110758Y0209569D02*
X0109891Y0209569D01*
X0109457Y0210002D01*
X0109457Y0212171D01*
X0108246Y0211737D02*
X0107812Y0212171D01*
X0106944Y0212171D01*
X0106511Y0211737D01*
X0106511Y0211303D01*
X0106944Y0210870D01*
X0106511Y0210436D01*
X0106511Y0210002D01*
X0106944Y0209569D01*
X0107812Y0209569D01*
X0108246Y0210002D01*
X0107378Y0210870D02*
X0106944Y0210870D01*
X0110758Y0209569D02*
X0111192Y0210002D01*
X0111192Y0212171D01*
X0099563Y0281783D02*
X0099563Y0284385D01*
X0098262Y0284385D01*
X0097828Y0283952D01*
X0097828Y0283084D01*
X0098262Y0282650D01*
X0099563Y0282650D01*
X0098696Y0282650D02*
X0097828Y0281783D01*
X0096617Y0282217D02*
X0096617Y0282650D01*
X0096183Y0283084D01*
X0095316Y0283084D01*
X0094882Y0282650D01*
X0094882Y0282217D01*
X0095316Y0281783D01*
X0096183Y0281783D01*
X0096617Y0282217D01*
X0096183Y0283084D02*
X0096617Y0283518D01*
X0096617Y0283952D01*
X0096183Y0284385D01*
X0095316Y0284385D01*
X0094882Y0283952D01*
X0094882Y0283518D01*
X0095316Y0283084D01*
X0120507Y0310533D02*
X0122242Y0310533D01*
X0121374Y0310533D02*
X0121374Y0313135D01*
X0122242Y0312268D01*
X0123453Y0312702D02*
X0123453Y0311834D01*
X0123887Y0311400D01*
X0125188Y0311400D01*
X0125188Y0310533D02*
X0125188Y0313135D01*
X0123887Y0313135D01*
X0123453Y0312702D01*
X0124321Y0311400D02*
X0123453Y0310533D01*
D13*
X0082595Y0204495D02*
X0082595Y0201371D01*
X0081033Y0202933D02*
X0084158Y0202933D01*
X0075658Y0202933D02*
X0072533Y0202933D01*
X0064595Y0242683D02*
X0064595Y0246683D01*
X0049595Y0263933D02*
X0049595Y0267933D01*
X0050845Y0291433D02*
X0050845Y0295433D01*
D14*
X0080945Y0261631D02*
X0080945Y0260163D01*
X0080945Y0260897D02*
X0083147Y0260897D01*
X0082413Y0260163D01*
X0080945Y0259421D02*
X0080945Y0257953D01*
X0080945Y0258687D02*
X0083147Y0258687D01*
X0082413Y0257953D01*
X0082780Y0257211D02*
X0083147Y0256844D01*
X0083147Y0256110D01*
X0082780Y0255743D01*
X0082413Y0255743D01*
X0082046Y0256110D01*
X0082046Y0256844D01*
X0081679Y0257211D01*
X0081312Y0257211D01*
X0080945Y0256844D01*
X0080945Y0256110D01*
X0081312Y0255743D01*
X0081312Y0255001D02*
X0083147Y0255001D01*
X0083147Y0253533D02*
X0081312Y0253533D01*
X0080945Y0253900D01*
X0080945Y0254634D01*
X0081312Y0255001D01*
X0080578Y0256477D02*
X0083514Y0256477D01*
X0105645Y0278685D02*
X0105645Y0280086D01*
X0106579Y0280086D02*
X0106579Y0278685D01*
X0106112Y0279152D01*
X0105645Y0278685D01*
X0107118Y0278919D02*
X0107351Y0278685D01*
X0107818Y0278685D01*
X0108052Y0278919D01*
X0108052Y0279853D01*
X0107818Y0280086D01*
X0107351Y0280086D01*
X0107118Y0279853D01*
X0108591Y0280086D02*
X0108591Y0278685D01*
X0108591Y0279386D02*
X0109525Y0279386D01*
X0110064Y0279386D02*
X0110765Y0279386D01*
X0110998Y0279619D01*
X0110998Y0279853D01*
X0110765Y0280086D01*
X0110298Y0280086D01*
X0110064Y0279853D01*
X0110064Y0278919D01*
X0110298Y0278685D01*
X0110765Y0278685D01*
X0110998Y0278919D01*
X0111538Y0278919D02*
X0111538Y0279152D01*
X0111771Y0279386D01*
X0112472Y0279386D01*
X0112472Y0278919D01*
X0112238Y0278685D01*
X0111771Y0278685D01*
X0111538Y0278919D01*
X0112005Y0279853D02*
X0112472Y0279386D01*
X0112005Y0279853D02*
X0111538Y0280086D01*
X0113011Y0280086D02*
X0113011Y0278685D01*
X0113945Y0278685D02*
X0113945Y0280086D01*
X0113478Y0279619D01*
X0113011Y0280086D01*
X0114484Y0280086D02*
X0115418Y0280086D01*
X0115418Y0278685D01*
X0115957Y0278685D02*
X0116424Y0279152D01*
X0116191Y0279152D02*
X0116891Y0279152D01*
X0116891Y0278685D02*
X0116891Y0280086D01*
X0116191Y0280086D01*
X0115957Y0279853D01*
X0115957Y0279386D01*
X0116191Y0279152D01*
X0115418Y0279386D02*
X0114951Y0279386D01*
X0109525Y0280086D02*
X0109525Y0278685D01*
D15*
X0175678Y0273492D02*
X0175680Y0273561D01*
X0175686Y0273629D01*
X0175696Y0273697D01*
X0175710Y0273764D01*
X0175728Y0273831D01*
X0175749Y0273896D01*
X0175775Y0273960D01*
X0175804Y0274022D01*
X0175836Y0274082D01*
X0175872Y0274141D01*
X0175912Y0274197D01*
X0175954Y0274251D01*
X0176000Y0274302D01*
X0176049Y0274351D01*
X0176100Y0274397D01*
X0176154Y0274439D01*
X0176210Y0274479D01*
X0176268Y0274515D01*
X0176329Y0274547D01*
X0176391Y0274576D01*
X0176455Y0274602D01*
X0176520Y0274623D01*
X0176587Y0274641D01*
X0176654Y0274655D01*
X0176722Y0274665D01*
X0176790Y0274671D01*
X0176859Y0274673D01*
X0176928Y0274671D01*
X0176996Y0274665D01*
X0177064Y0274655D01*
X0177131Y0274641D01*
X0177198Y0274623D01*
X0177263Y0274602D01*
X0177327Y0274576D01*
X0177389Y0274547D01*
X0177449Y0274515D01*
X0177508Y0274479D01*
X0177564Y0274439D01*
X0177618Y0274397D01*
X0177669Y0274351D01*
X0177718Y0274302D01*
X0177764Y0274251D01*
X0177806Y0274197D01*
X0177846Y0274141D01*
X0177882Y0274082D01*
X0177914Y0274022D01*
X0177943Y0273960D01*
X0177969Y0273896D01*
X0177990Y0273831D01*
X0178008Y0273764D01*
X0178022Y0273697D01*
X0178032Y0273629D01*
X0178038Y0273561D01*
X0178040Y0273492D01*
X0178038Y0273423D01*
X0178032Y0273355D01*
X0178022Y0273287D01*
X0178008Y0273220D01*
X0177990Y0273153D01*
X0177969Y0273088D01*
X0177943Y0273024D01*
X0177914Y0272962D01*
X0177882Y0272901D01*
X0177846Y0272843D01*
X0177806Y0272787D01*
X0177764Y0272733D01*
X0177718Y0272682D01*
X0177669Y0272633D01*
X0177618Y0272587D01*
X0177564Y0272545D01*
X0177508Y0272505D01*
X0177450Y0272469D01*
X0177389Y0272437D01*
X0177327Y0272408D01*
X0177263Y0272382D01*
X0177198Y0272361D01*
X0177131Y0272343D01*
X0177064Y0272329D01*
X0176996Y0272319D01*
X0176928Y0272313D01*
X0176859Y0272311D01*
X0176790Y0272313D01*
X0176722Y0272319D01*
X0176654Y0272329D01*
X0176587Y0272343D01*
X0176520Y0272361D01*
X0176455Y0272382D01*
X0176391Y0272408D01*
X0176329Y0272437D01*
X0176268Y0272469D01*
X0176210Y0272505D01*
X0176154Y0272545D01*
X0176100Y0272587D01*
X0176049Y0272633D01*
X0176000Y0272682D01*
X0175954Y0272733D01*
X0175912Y0272787D01*
X0175872Y0272843D01*
X0175836Y0272901D01*
X0175804Y0272962D01*
X0175775Y0273024D01*
X0175749Y0273088D01*
X0175728Y0273153D01*
X0175710Y0273220D01*
X0175696Y0273287D01*
X0175686Y0273355D01*
X0175680Y0273423D01*
X0175678Y0273492D01*
D16*
X0069245Y0247933D03*
M02*
